<?xml version="1.0" encoding="UTF-8"?>
<svg version="1.1" xmlns="http://www.w3.org/2000/svg" width="705" height="172">
<path d="M0 0 C232.65 0 465.3 0 705 0 C705 56.76 705 113.52 705 172 C472.35 172 239.7 172 0 172 C0 115.24 0 58.48 0 0 Z " fill="#FDFDFE" transform="translate(0,0)"/>
<path d="M0 0 C232.65 0 465.3 0 705 0 C705 56.76 705 113.52 705 172 C472.35 172 239.7 172 0 172 C0 115.24 0 58.48 0 0 Z M10 10 C10 60.49 10 110.98 10 163 C236.38 163 462.76 163 696 163 C696 112.51 696 62.02 696 10 C469.62 10 243.24 10 10 10 Z " fill="#015792" transform="translate(0,0)"/>
<path d="M0 0 C4.06236402 -0.08729047 8.12448589 -0.14048992 12.1875 -0.1875 C13.91323242 -0.22520508 13.91323242 -0.22520508 15.67382812 -0.26367188 C17.34155273 -0.27817383 17.34155273 -0.27817383 19.04296875 -0.29296875 C20.06414795 -0.3086792 21.08532715 -0.32438965 22.13745117 -0.34057617 C25.45714364 0.05438937 27.30593878 1.05809542 30 3 C35.10318339 9.98003807 32.1997075 23.12655961 31.01953125 31.08984375 C29.79680969 38.7481483 28.40968846 46.37429655 27 54 C26.65050069 55.97386262 26.30148911 57.94781171 25.953125 59.921875 C21.34212726 85.28353229 21.34212726 85.28353229 13 93 C9.30204967 94.82245177 6.36194316 95.23916517 2.26171875 95.1953125 C1.19501953 95.18886719 0.12832031 95.18242187 -0.97070312 95.17578125 C-2.62489258 95.15064453 -2.62489258 95.15064453 -4.3125 95.125 C-5.43462891 95.11597656 -6.55675781 95.10695313 -7.71289062 95.09765625 C-10.47547909 95.07414486 -13.23762932 95.04128155 -16 95 C-16.17519939 89.50920573 -15.52939878 84.51800656 -14.49609375 79.1328125 C-14.33734772 78.27633621 -14.17860168 77.41985992 -14.01504517 76.53742981 C-13.67264891 74.69250591 -13.32755112 72.84808171 -12.98001099 71.00411987 C-12.05449376 66.09237595 -11.14859185 61.17701978 -10.2421875 56.26171875 C-10.0558223 55.25325394 -9.86945709 54.24478912 -9.67744446 53.20576477 C-7.37594169 40.69728953 -5.2696683 28.15574609 -3.17163086 15.61181641 C-3.03212006 14.78284348 -2.89260925 13.95387054 -2.74887085 13.09977722 C-2.4891564 11.55596083 -2.23147436 10.01180059 -1.97622681 8.46723938 C-1.48417237 5.54500364 -0.93905817 2.8171745 0 0 Z " fill="#045A94" transform="translate(489,39)"/>
<path d="M0 0 C3.63 0 7.26 0 11 0 C11.85573135 4.27865677 12.36658703 8.42500775 12.71875 12.7578125 C12.78155151 13.50151093 12.84435303 14.24520935 12.90905762 15.01144409 C13.10872471 17.38241328 13.30448241 19.75368538 13.5 22.125 C13.69590611 24.46910123 13.89261732 26.81313401 14.08935547 29.15716553 C14.21634081 30.67133642 14.34297378 32.1855369 14.46923828 33.69976807 C14.95121174 39.46915105 15.46171278 45.23557713 16 51 C18.55128784 40.69680988 20.39168909 30.33994599 22.125 19.875 C22.52079447 17.49637645 22.91776817 15.11796971 23.31759644 12.74002075 C23.56382666 11.27467541 23.8076963 9.80893084 24.04885864 8.34274292 C24.53191701 5.46039329 25.07378466 2.77864603 26 0 C29.96 0 33.92 0 38 0 C36.61132721 10.04774493 35.05074336 20.0589976 33.375 30.0625 C33.18824203 31.18031357 33.18824203 31.18031357 32.99771118 32.32070923 C30.80335389 45.43401215 28.53555615 58.53455292 26.22662354 71.62814331 C25.8672609 73.66741335 25.50914679 75.70690379 25.15228271 77.74661255 C24.65119752 80.60655791 24.14478333 83.46550613 23.63671875 86.32421875 C23.48592361 87.18914948 23.33512848 88.0540802 23.17976379 88.94522095 C22.11458036 94.88541964 22.11458036 94.88541964 21 96 C19.33570949 96.09823937 17.66718069 96.12973631 16 96.125 C14.63875 96.12886719 14.63875 96.12886719 13.25 96.1328125 C11 96 11 96 10 95 C9.56534531 92.07160936 9.1865982 89.15438448 8.84375 86.21484375 C8.68295959 84.88036949 8.68295959 84.88036949 8.5189209 83.51893616 C8.17523104 80.65892548 7.83751845 77.79824492 7.5 74.9375 C7.27253441 73.03445748 7.04467467 71.13146202 6.81640625 69.22851562 C6.3940057 65.70463484 5.97421868 62.18046106 5.55664062 58.65600586 C5.05500117 54.43509473 4.53166773 50.21722971 4 46 C3.852994 46.87323662 3.852994 46.87323662 3.70301819 47.76411438 C2.68386823 53.81515355 1.66138947 59.86562345 0.63696289 65.91577148 C0.2549205 68.17474121 -0.12626865 70.43385542 -0.5065918 72.69311523 C-1.05293905 75.93771987 -1.60233784 79.18179507 -2.15234375 82.42578125 C-2.3221727 83.43836502 -2.49200165 84.45094879 -2.66697693 85.49421692 C-2.82706741 86.43496567 -2.9871579 87.37571442 -3.15209961 88.3449707 C-3.29199814 89.17325882 -3.43189667 90.00154694 -3.57603455 90.85493469 C-4 93 -4 93 -5 96 C-8.96 96 -12.92 96 -17 96 C-15.6290685 83.59372692 -13.53670866 71.39074217 -11.25 59.125 C-10.53321177 55.24514921 -9.8193786 51.36475631 -9.10546875 47.484375 C-8.92753281 46.51966278 -8.74959686 45.55495056 -8.56626892 44.56100464 C-7.40640649 38.25926344 -6.27706834 31.95285759 -5.17578125 25.640625 C-5.03661285 24.84377289 -4.89744446 24.04692078 -4.75405884 23.22592163 C-4.22769438 20.20724327 -3.70240535 17.18839956 -3.1829834 14.16851807 C-2.83414583 12.14054487 -2.4817823 10.11321114 -2.12890625 8.0859375 C-1.93369385 6.9520459 -1.73848145 5.8181543 -1.53735352 4.64990234 C-1 2 -1 2 0 0 Z " fill="#065B94" transform="translate(439,39)"/>
<path d="M0 0 C3.63 0 7.26 0 11 0 C12.56655135 11.29371775 13.88543411 22.60380224 15.125 33.9375 C16.053125 42.3834375 16.053125 42.3834375 17 51 C19.97 34.17 22.94 17.34 26 0 C29.96 0 33.92 0 38 0 C37.3517055 11.13214271 35.37217483 21.92427763 33.375 32.875 C33.01781534 34.85628937 32.66104994 36.83765437 32.3046875 38.8190918 C31.21208734 44.88103816 30.1077372 50.94080353 29 57 C28.82327759 57.96717957 28.64655518 58.93435913 28.46447754 59.93084717 C26.32685845 71.62375751 24.17213634 83.31345398 22 95 C18.37 95 14.74 95 11 95 C9.89417984 92.78835968 9.70076266 91.18633161 9.42749023 88.73388672 C9.27744789 87.41274368 9.27744789 87.41274368 9.12437439 86.06491089 C9.02016678 85.11278717 8.91595917 84.16066345 8.80859375 83.1796875 C8.69902847 82.20589142 8.5894632 81.23209534 8.47657776 80.22879028 C8.12664508 77.11124802 7.78201595 73.99314506 7.4375 70.875 C7.20152033 68.76428393 6.96519662 66.65360629 6.72851562 64.54296875 C6.14834745 59.36241891 5.57253525 54.18139865 5 49 C4.67 49 4.34 49 4 49 C3.02108878 54.58669631 2.04250132 60.17344919 1.06420898 65.76025391 C0.73161492 67.6593579 0.39893363 69.55844662 0.06616211 71.45751953 C-0.41315481 74.19299334 -0.89215418 76.9285226 -1.37109375 79.6640625 C-1.5930265 80.93003769 -1.5930265 80.93003769 -1.81944275 82.22158813 C-2.56436952 86.47819779 -3.29739834 90.73614274 -4 95 C-7.96 95 -11.92 95 -16 95 C-15.39822909 82.26251567 -13.01832819 69.90242986 -10.75 57.375 C-10.33938606 55.08203178 -9.92923153 52.78898125 -9.51953125 50.49584961 C-8.35579446 43.99551117 -7.1799901 37.49740525 -6 31 C-5.84539307 30.14726501 -5.69078613 29.29453003 -5.53149414 28.41595459 C-1.37649405 5.50597621 -1.37649405 5.50597621 0 0 Z " fill="#055A94" transform="translate(248,39)"/>
<path d="M0 0 C3.09244792 0.03255208 6.18489583 0.06510417 9.27734375 0.09765625 C8.09472591 7.33247981 6.84729065 14.55222698 5.52609253 21.76301575 C4.62469336 26.68408027 3.74005302 31.60813442 2.85400391 36.53198242 C2.38705726 39.11286187 1.91571733 41.6929504 1.43994141 44.2722168 C-2.37411949 64.04693619 -2.37411949 64.04693619 -2.72265625 84.09765625 C-1.07265625 84.42765625 0.57734375 84.75765625 2.27734375 85.09765625 C12.28207085 73.68785999 12.06638403 48.63700248 14.59289551 33.78424072 C15.57774998 27.99454403 16.56698051 22.20562198 17.56421852 16.41804504 C17.90941192 14.40601312 18.2496173 12.39317993 18.58952332 10.38024902 C18.90038628 8.5707074 18.90038628 8.5707074 19.2175293 6.72460938 C19.39865768 5.65891724 19.57978607 4.5932251 19.7664032 3.49523926 C20.27734375 1.09765625 20.27734375 1.09765625 21.27734375 0.09765625 C25.27718853 -0.04581021 29.27564357 0.05553309 33.27734375 0.09765625 C31.25282609 12.32643431 29.14471428 24.54019827 27.01879883 36.75170898 C26.56591251 39.35877731 26.11506813 41.96620117 25.66625977 44.57397461 C25.01170837 48.37572962 24.35028844 52.17623593 23.6875 55.9765625 C23.49052017 57.12894913 23.29354034 58.28133575 23.09059143 59.46864319 C18.03705489 88.23526189 18.03705489 88.23526189 9.0625 94.98046875 C4.1003782 98.08586664 -0.99236506 98.81823179 -6.72265625 98.09765625 C-10.56588797 96.79240774 -12.22012645 95.91201838 -14.359375 92.4453125 C-15.87107343 88.73320489 -16.2590624 85.60722755 -16.22265625 81.66015625 C-16.21693604 80.89340576 -16.21121582 80.12665527 -16.20532227 79.33666992 C-15.85016919 66.91587875 -13.31857278 54.65780383 -11.14105225 42.45404053 C-10.69393258 39.93588604 -10.25370881 37.4165955 -9.81494141 34.89697266 C-8.87568596 29.50407868 -7.92654089 24.1129804 -6.97265625 18.72265625 C-6.81836151 17.84743317 -6.66406677 16.97221008 -6.50509644 16.07046509 C-6.06644918 13.59172707 -5.62211192 11.11408334 -5.17578125 8.63671875 C-5.04367752 7.88719437 -4.91157379 7.13766998 -4.77546692 6.36543274 C-3.64066494 0.13058339 -3.64066494 0.13058339 0 0 Z " fill="#075B95" transform="translate(629.72265625,37.90234375)"/>
<path d="M0 0 C3.96 0 7.92 0 12 0 C11.37515332 7.11781872 9.62545018 13.89783361 7.84716797 20.79882812 C6.93531036 24.33966699 6.03959413 27.88457183 5.14453125 31.4296875 C4.87329941 32.50280182 4.87329941 32.50280182 4.59658813 33.59759521 C1.88902587 44.35698082 -0.55407755 55.17864613 -3 66 C0.63 66 4.26 66 8 66 C8.19251343 63.59763062 8.19251343 63.59763062 8.38891602 61.14672852 C8.89680151 55.58022126 9.75009994 50.14359616 10.77734375 44.65234375 C10.94875381 43.71499893 11.12016388 42.77765411 11.29676819 41.81190491 C11.83910744 38.85290798 12.38826715 35.89522419 12.9375 32.9375 C13.30186367 30.9525531 13.66579921 28.96752755 14.02929688 26.98242188 C15.62275042 18.30780588 17.25444974 9.64548251 19 1 C22.96 1 26.92 1 31 1 C29.61132232 11.04778028 28.04972888 21.05880852 26.375 31.0625 C26.25082703 31.80737671 26.12665405 32.55225342 25.99871826 33.31970215 C22.50631725 54.24333332 18.74903194 75.12112848 15 96 C11.04 96 7.08 96 3 96 C2.51271038 89.01551539 4.32579042 82.76659706 6 76 C-1.92 76 -9.84 76 -18 76 C-15.94568221 65.21818834 -13.48860789 54.60312847 -10.78411865 43.96728516 C-9.66636492 39.57120808 -8.56030611 35.17218699 -7.453125 30.7734375 C-7.23812347 29.92046082 -7.02312195 29.06748413 -6.80160522 28.18865967 C-4.44230312 18.81414103 -2.19221225 9.41497471 0 0 Z " fill="#065B94" transform="translate(584,38)"/>
<path d="M0 0 C4.0662765 6.03382965 3.49630259 12.9372323 3 20 C2.505 21.485 2.505 21.485 2 23 C-1.96 23 -5.92 23 -10 23 C-10 18.05 -10 13.1 -10 8 C-12.31 8.33 -14.62 8.66 -17 9 C-17.48198463 10.24891614 -17.96045677 11.49918808 -18.4375 12.75 C-18.70433594 13.44609375 -18.97117187 14.1421875 -19.24609375 14.859375 C-20.69280741 18.96714228 -21.18383527 22.56511425 -21.25 26.9375 C-21.27578125 27.95714844 -21.3015625 28.97679688 -21.328125 30.02734375 C-20.65186849 36.15390568 -16.93326964 39.18931364 -12.4375 43.0625 C-5.27940288 49.23196219 -5.27940288 49.23196219 -4.6640625 55.328125 C-4.54305284 67.47749494 -5.44758639 79.95938811 -13 90 C-18.70202089 95.1318188 -22.72062492 96.41799917 -30.3046875 96.24609375 C-33.87768388 95.91986365 -36.12250293 95.1581228 -39 93 C-42.40374094 87.78903471 -42.39690326 83.31257983 -42.25 77.3125 C-42.24484375 76.45849609 -42.2396875 75.60449219 -42.234375 74.72460938 C-42.18974281 71.17356036 -42.13210355 68.39631066 -41 65 C-37.04 65 -33.08 65 -29 65 C-29 70.61 -29 76.22 -29 82 C-24.3950401 83.51227551 -24.3950401 83.51227551 -22.29296875 81.9453125 C-18.43741439 76.14450866 -17.29132026 66.88985399 -17.59375 59.984375 C-18.7348616 54.41048371 -22.83471853 51.07044434 -27.0625 47.625 C-31.87424804 43.55002245 -34.22087938 39.17965751 -35.375 32.98828125 C-35.96616193 23.28953079 -32.73163076 10.50383305 -26.828125 2.70703125 C-19.46533872 -4.1680491 -8.51252031 -5.17427705 0 0 Z " fill="#055A94" transform="translate(563,40)"/>
<path d="M0 0 C2.82482 1.88321333 4.01985125 2.77233276 5.625 5.75 C5.99236438 9.00790219 5.9067774 12.22688197 5.8125 15.5 C5.79219727 16.83224609 5.79219727 16.83224609 5.77148438 18.19140625 C5.73621891 20.377865 5.68241412 22.56401072 5.625 24.75 C1.995 24.75 -1.635 24.75 -5.375 24.75 C-5.705 19.8 -6.035 14.85 -6.375 9.75 C-8.025 9.75 -9.675 9.75 -11.375 9.75 C-14.30602666 14.90894576 -15.54924247 19.943052 -16.75 25.6875 C-16.95842529 26.67169922 -17.16685059 27.65589844 -17.3815918 28.66992188 C-19.03024428 36.66622515 -20.49855344 44.69428206 -21.85015869 52.74563599 C-22.17732045 54.68951669 -22.5140453 56.63178036 -22.85107422 58.57397461 C-24.28354248 67.41176126 -24.62426855 75.82381205 -24.375 84.75 C-21.92429033 84.48206677 -21.92429033 84.48206677 -19.375 83.75 C-16.83204118 79.22918431 -15.78405083 74.63894729 -14.8046875 69.5703125 C-14.375 67.75 -14.375 67.75 -13.375 66.75 C-11.52212498 66.67773498 -9.66666122 66.6661878 -7.8125 66.6875 C-6.29462891 66.70103516 -6.29462891 66.70103516 -4.74609375 66.71484375 C-3.96363281 66.72644531 -3.18117188 66.73804687 -2.375 66.75 C-2.97391824 71.79523518 -4.03228489 76.47994514 -5.625 81.3125 C-5.91310547 82.26286133 -5.91310547 82.26286133 -6.20703125 83.23242188 C-7.96194002 88.59096407 -10.48632364 92.94882533 -15.3671875 95.9921875 C-21.09157613 97.91615214 -25.75246422 98.65780085 -31.625 96.625 C-35.19902992 94.18816142 -36.08255381 92.91454882 -37.375 88.75 C-38.22711971 78.11835581 -36.41707912 67.75590156 -34.6875 57.3125 C-34.55216858 56.47772125 -34.41683716 55.6429425 -34.27740479 54.78286743 C-32.65604307 44.79045131 -30.95080639 34.82131357 -28.75 24.9375 C-28.56864502 24.1112915 -28.38729004 23.28508301 -28.20043945 22.43383789 C-26.1794715 13.90930391 -23.21232679 5.01238319 -15.6875 -0.0625 C-10.17424434 -2.03895014 -5.4932423 -2.03453418 0 0 Z " fill="#075C95" transform="translate(321.375,38.25)"/>
<path d="M0 0 C2.41757779 2.23929035 4.13431051 4.54093936 5.8125 7.375 C6.27269531 8.12523438 6.73289063 8.87546875 7.20703125 9.6484375 C8.28310279 12.83954621 7.39055532 13.97320724 6 17 C5.01614058 18.85560148 4.0007788 20.69471172 2.9609375 22.51953125 C2.09082031 24.0519043 2.09082031 24.0519043 1.203125 25.61523438 C0.59984375 26.67033203 -0.0034375 27.72542969 -0.625 28.8125 C-1.23601562 29.88693359 -1.84703125 30.96136719 -2.4765625 32.06835938 C-3.98155885 34.71386076 -5.48945791 37.3576625 -7 40 C-6.18647064 39.9800145 -5.37294128 39.96002899 -4.53475952 39.93943787 C3.14502143 39.75884473 10.82376862 39.62195754 18.50512123 39.53369045 C22.45404492 39.48678314 26.40120983 39.42320955 30.34912109 39.32104492 C34.16182994 39.22300048 37.9728517 39.16939376 41.78672409 39.14610481 C43.23898258 39.12951796 44.69115203 39.09712233 46.14268875 39.04842949 C57.47546462 38.68350396 57.47546462 38.68350396 61.22674561 41.92288208 C63.74469538 45.55858021 64.92529074 48.70116298 66 53 C34.32 53 2.64 53 -30 53 C-27.36 48.38 -24.72 43.76 -22 39 C-19.66161316 34.83603045 -17.3272674 30.67015456 -15 26.5 C-10.04723665 17.63908267 -5.06687112 8.79621416 0 0 Z " fill="#055A94" transform="translate(150,83)"/>
<path d="M0 0 C0.66 0 1.32 0 2 0 C2.50430542 0.89585815 2.50430542 0.89585815 3.01879883 1.80981445 C8.9704469 12.37649026 14.9319887 22.93709143 21 33.4375 C21.64739136 34.56055542 21.64739136 34.56055542 22.30786133 35.70629883 C24.79412535 39.99618073 27.37217756 44.20286211 30.08203125 48.35571289 C31 50 31 50 31 52 C25.80523319 53.57152609 20.93759798 54.60824407 16 52 C10.74405556 46.14200429 2 34.13119748 2 26 C1.34 26 0.68 26 0 26 C-0.40508789 27.07169434 -0.40508789 27.07169434 -0.81835938 28.16503906 C-2.011935 31.02863414 -3.38826523 33.65468893 -4.90625 36.359375 C-5.48052734 37.38474365 -6.05480469 38.4101123 -6.64648438 39.46655273 C-7.25814453 40.55009033 -7.86980469 41.63362793 -8.5 42.75 C-9.44069336 44.42267944 -9.44069336 44.42267944 -10.40039062 46.12915039 C-18.58795791 60.64661041 -18.58795791 60.64661041 -22.7434082 67.4831543 C-24.50280271 70.37963425 -26.06127577 73.14078234 -27.41796875 76.2578125 C-29.56222265 80.99496419 -29.56222265 80.99496419 -32 83 C-37.1370855 83.82996207 -41.84991208 83.58970472 -47 83 C-43.15618159 75.09464183 -39.04461201 67.43493223 -34.5625 59.875 C-33.32623235 57.77248256 -32.09057679 55.66960511 -30.85546875 53.56640625 C-30.2217334 52.48891113 -29.58799805 51.41141602 -28.93505859 50.30126953 C-25.7222366 44.8200963 -22.5475565 39.31704906 -19.375 33.8125 C-18.75625 32.73935547 -18.1375 31.66621094 -17.5 30.56054688 C-11.64005176 20.38891041 -5.81260052 10.19875568 0 0 Z " fill="#065B94" transform="translate(150,53)"/>
<path d="M0 0 C3.02837983 2.81643014 5.1074732 5.5720448 7.14453125 9.1640625 C7.73113525 10.19031738 8.31773926 11.21657227 8.92211914 12.27392578 C9.54594482 13.37978027 10.16977051 14.48563477 10.8125 15.625 C11.47644453 16.79059378 12.14108941 17.95578888 12.80639648 19.12060547 C14.18813926 21.5410872 15.5668567 23.96325342 16.94335938 26.38671875 C20.1237782 31.9810822 23.3445711 37.55215912 26.5625 43.125 C27.17206543 44.18348145 27.78163086 45.24196289 28.40966797 46.33251953 C31.60060781 51.86882123 34.81186103 57.39237265 38.0546875 62.8984375 C38.70622803 64.00687012 39.35776855 65.11530273 40.02905273 66.25732422 C41.2773778 68.37837494 42.52934949 70.49728476 43.78540039 72.61376953 C44.3396167 73.55591309 44.89383301 74.49805664 45.46484375 75.46875 C45.955896 76.29826172 46.44694824 77.12777344 46.95288086 77.98242188 C48 80 48 80 48 82 C28.53 82 9.06 82 -11 82 C-8.23563414 73.70690241 -8.23563414 73.70690241 -5 70 C-1.70019531 69.31884766 -1.70019531 69.31884766 2.171875 69.4140625 C2.8542926 69.42255219 3.53671021 69.43104187 4.23980713 69.43978882 C6.4115038 69.47327943 8.57943383 69.54852758 10.75 69.625 C12.22520663 69.65510626 13.7004717 69.68248095 15.17578125 69.70703125 C18.78507044 69.77304915 22.39216742 69.87653083 26 70 C18.69714628 56.98777597 11.31421795 44.02792606 3.75927734 31.16015625 C2.16622876 28.443894 0.58087867 25.72336028 -1 23 C-1.49870605 22.14704346 -1.99741211 21.29408691 -2.51123047 20.4152832 C-2.96900879 19.61695068 -3.42678711 18.81861816 -3.8984375 17.99609375 C-4.30239746 17.29669678 -4.70635742 16.5972998 -5.12255859 15.87670898 C-6 14 -6 14 -6.125 10.9375 C-4.59334543 6.93817975 -2.42039545 3.51895132 0 0 Z " fill="#045993" transform="translate(159,38)"/>
<path d="M0 0 C3.96 0 7.92 0 12 0 C12 12.21 12 24.42 12 37 C12.66 37 13.32 37 14 37 C14.17112305 35.97845825 14.17112305 35.97845825 14.34570312 34.9362793 C15.11187335 31.49794745 16.24951846 28.32496941 17.46875 25.01953125 C17.70911987 24.36546799 17.94948975 23.71140472 18.19714355 23.03752136 C18.70311304 21.66280735 19.21083517 20.28873727 19.72021484 18.9152832 C20.5008752 16.81013991 21.27628709 14.70312185 22.05078125 12.59570312 C25.83390717 2.33218565 25.83390717 2.33218565 27 0 C30.96 0 34.92 0 39 0 C38.20109617 3.19561532 37.31811129 5.76410225 36.00634766 8.74584961 C35.59567047 9.68460434 35.18499329 10.62335907 34.76187134 11.59056091 C34.31709442 12.60094925 33.8723175 13.61133759 33.4140625 14.65234375 C32.47347843 16.81294219 31.53339043 18.97375664 30.59375 21.13476562 C29.11541914 24.52676254 27.6339211 27.91722758 26.14355469 31.30395508 C24.70269883 34.58240679 23.27618118 37.86680969 21.8515625 41.15234375 C21.41083405 42.14451401 20.97010559 43.13668427 20.51602173 44.15892029 C16.39091888 53.72645897 14.28357226 63.58457019 12.61328125 73.83203125 C12.45317818 74.8032618 12.45317818 74.8032618 12.2898407 75.79411316 C11.96013781 77.79962455 11.63617481 79.80600798 11.3125 81.8125 C11.08567267 83.19863096 10.85846098 84.58469909 10.63085938 85.97070312 C10.08348055 89.31320784 9.53992902 92.65628527 9 96 C5.04 96 1.08 96 -3 96 C-2.7141483 88.47257199 -1.75275554 81.64014298 -0.08886719 74.3125 C2.94764337 60.75412726 3.23636121 48.77438855 2 35 C1.7275262 31.52645992 1.46532487 28.05222841 1.20336914 24.57788086 C1.0310363 22.33976945 0.85101169 20.10223172 0.66186523 17.86547852 C0.16229747 11.88335424 -0.09399446 6.00311282 0 0 Z " fill="#075B95" transform="translate(335,38)"/>
<path d="M0 0 C1.5631897 0.00785522 1.5631897 0.00785522 3.15795898 0.01586914 C4.28266602 0.0190918 5.40737305 0.02231445 6.56616211 0.02563477 C7.75016602 0.03401367 8.93416992 0.04239258 10.15405273 0.05102539 C11.34192383 0.05553711 12.52979492 0.06004883 13.75366211 0.06469727 C16.69967499 0.07652864 19.64558954 0.09301252 22.59155273 0.11352539 C22.26155273 3.41352539 21.93155273 6.71352539 21.59155273 10.11352539 C16.97155273 10.11352539 12.35155273 10.11352539 7.59155273 10.11352539 C7.4794043 11.29817383 7.36725586 12.48282227 7.25170898 13.70336914 C6.50593044 20.41537602 5.24164017 27.03566563 4.02905273 33.67602539 C3.79508789 34.97088867 3.56112305 36.26575195 3.32006836 37.59985352 C2.7465837 40.77157478 2.17034413 43.942769 1.59155273 47.11352539 C5.22155273 47.11352539 8.85155273 47.11352539 12.59155273 47.11352539 C11.93155273 50.41352539 11.27155273 53.71352539 10.59155273 57.11352539 C6.96155273 57.11352539 3.33155273 57.11352539 -0.40844727 57.11352539 C-0.78936523 59.65040039 -0.78936523 59.65040039 -1.17797852 62.23852539 C-3.04460859 74.57538553 -4.9682752 86.87569276 -7.40844727 99.11352539 C-11.36844727 99.11352539 -15.32844727 99.11352539 -19.40844727 99.11352539 C-18.81273366 90.70716893 -17.76615991 82.53365545 -16.29907227 74.23852539 C-16.09038513 73.03454102 -15.881698 71.83055664 -15.66668701 70.59008789 C-15.00217005 66.76369556 -14.33038419 62.93862088 -13.65844727 59.11352539 C-13.22308482 56.61100236 -12.78818577 54.10839866 -12.35375977 51.60571289 C-11.27100939 45.37842851 -10.17750313 39.15309412 -9.07958984 32.9284668 C-8.50048831 29.63670957 -7.92543268 26.34429475 -7.35237503 23.05148315 C-6.78570097 19.80077321 -6.21380964 16.55098003 -5.64282227 13.30102539 C-5.43304749 12.08995117 -5.22327271 10.87887695 -5.00714111 9.63110352 C-4.811828 8.52573242 -4.61651489 7.42036133 -4.4152832 6.28149414 C-4.24446228 5.30462646 -4.07364136 4.32775879 -3.89764404 3.32128906 C-3.22476602 0.28456493 -3.14604248 0.14829293 0 0 Z " fill="#065B94" transform="translate(65.408447265625,36.886474609375)"/>
<path d="M0 0 C8.25 0 16.5 0 25 0 C24.67 2.97 24.34 5.94 24 9 C19.38 9 14.76 9 10 9 C9.87753906 10.54300781 9.75507813 12.08601563 9.62890625 13.67578125 C9.03279701 20.23298293 8.01396761 26.69446038 6.9375 33.1875 C6.75123047 34.33025391 6.56496094 35.47300781 6.37304688 36.65039062 C5.91878934 39.43417395 5.46105399 42.21733571 5 45 C8.3 45 11.6 45 15 45 C14.67 48.3 14.34 51.6 14 55 C10.04 55 6.08 55 2 55 C1.88785156 56.67578125 1.77570313 58.3515625 1.66015625 60.078125 C1.0505189 67.39377317 -0.21883626 74.53862822 -1.5625 81.75 C-1.79646484 83.03132813 -2.03042969 84.31265625 -2.27148438 85.6328125 C-2.84254194 88.75614774 -3.4205448 91.87821182 -4 95 C-7.96 95 -11.92 95 -16 95 C-16.09200989 90.41177333 -15.82758214 86.1837999 -15.00390625 81.671875 C-14.77920654 80.42092041 -14.55450684 79.16996582 -14.32299805 77.88110352 C-14.06956836 76.50405619 -13.81606668 75.12702211 -13.5625 73.75 C-13.29987572 72.29951738 -13.03793391 70.84891106 -12.77661133 69.39819336 C-12.34557264 67.00554602 -11.91405843 64.61299372 -11.48045349 62.22080994 C-10.17159491 54.99162296 -8.899171 47.75627116 -7.6328125 40.51953125 C-7.22454602 38.18977549 -6.8162615 35.86002289 -6.40795898 33.53027344 C-5.79792167 30.04885095 -5.18834712 26.56735118 -4.58035278 23.08557129 C-4.00754958 19.80796676 -3.43183172 16.5308864 -2.85546875 13.25390625 C-2.68278473 12.26163528 -2.51010071 11.26936432 -2.33218384 10.24702454 C-2.17124237 9.33478622 -2.0103009 8.42254791 -1.84448242 7.48266602 C-1.70491623 6.68586929 -1.56535004 5.88907257 -1.42155457 5.06813049 C-1 3 -1 3 0 0 Z " fill="#055A94" transform="translate(381,39)"/>
<path d="M0 0 C3.96 0 7.92 0 12 0 C10.93995925 7.56311053 9.69165255 15.09231939 8.4375 22.625 C8.24649719 23.77302597 8.24649719 23.77302597 8.05163574 24.94424438 C5.70145089 39.04010593 3.24527211 53.11666272 0.75 67.1875 C0.49160843 68.64956879 0.49160843 68.64956879 0.22799683 70.14117432 C-0.26760167 72.94218263 -0.76609573 75.74265907 -1.265625 78.54296875 C-1.41126389 79.36664444 -1.55690277 80.19032013 -1.70695496 81.03895569 C-2.66753258 86.39450301 -3.78998549 91.69508697 -5 97 C-8.96 97 -12.92 97 -17 97 C-15.62906616 84.59370578 -13.53649418 72.39079478 -11.25 60.125 C-10.53322221 56.24384515 -9.81943415 52.3621418 -9.10546875 48.48046875 C-8.92753281 47.51555008 -8.74959686 46.55063141 -8.56626892 45.55647278 C-7.40871953 39.26759668 -6.2788567 32.97443446 -5.17578125 26.67578125 C-5.03661285 25.88129578 -4.89744446 25.0868103 -4.75405884 24.26824951 C-4.22814969 21.2605338 -3.70352605 18.25260701 -3.1829834 15.24395752 C-2.83340628 13.22352714 -2.48122669 11.20354756 -2.12890625 9.18359375 C-1.93369385 8.05493896 -1.73848145 6.92628418 -1.53735352 5.76342773 C-1 3 -1 3 0 0 Z " fill="#085C95" transform="translate(415,38)"/>
<path d="M0 0 C1.45792884 -0.05399736 2.91642712 -0.09279177 4.375 -0.125 C5.18710937 -0.14820313 5.99921875 -0.17140625 6.8359375 -0.1953125 C9 0 9 0 11 2 C11.83885895 9.93739116 10.65960904 17.87528091 9.3125 25.6875 C9.13533447 26.7489624 8.95816895 27.8104248 8.77563477 28.90405273 C7.43207159 36.80917648 5.9717095 44.69228057 4.4375 52.5625 C4.14129761 54.10393677 4.14129761 54.10393677 3.83911133 55.67651367 C0.95256881 70.04743119 0.95256881 70.04743119 -3 74 C-6.00363924 74.27108657 -8.98798493 74.08605757 -12 74 C-11.49626291 62.61673401 -9.22303257 51.5476328 -7.125 40.375 C-6.41682971 36.57076341 -5.71190513 32.76593068 -5.0078125 28.9609375 C-4.83703186 28.040849 -4.66625122 27.1207605 -4.49029541 26.17279053 C-2.88271319 17.46654791 -1.41788857 8.73890633 0 0 Z " fill="#F7FAFB" transform="translate(499,48)"/>
<path d="M0 0 C2.31693982 2.95059593 4.19092161 5.97933813 6.00390625 9.26171875 C6.86085083 10.80520996 6.86085083 10.80520996 7.73510742 12.37988281 C8.33814697 13.47139648 8.94118652 14.56291016 9.5625 15.6875 C15.76567865 26.84532763 21.99615639 38.00268703 28.76953125 48.828125 C30 51 30 51 30 53 C28.6385083 52.95903198 28.6385083 52.95903198 27.24951172 52.91723633 C23.85914354 52.84161071 20.47578035 52.8158109 17.08496094 52.82299805 C15.62216878 52.8160493 14.15932821 52.7896338 12.69726562 52.74291992 C10.58411447 52.67886323 8.4810094 52.68640394 6.3671875 52.70703125 C4.46622314 52.68346558 4.46622314 52.68346558 2.52685547 52.65942383 C-2.65094429 54.18993414 -2.65094429 54.18993414 -7 65 C12.8 65 32.6 65 53 65 C53 65.33 53 65.66 53 66 C32.87 66 12.74 66 -8 66 C-9.1223322 60.388339 -9.1223322 60.388339 -6.62109375 56.56640625 C-5.85829102 55.3453418 -5.85829102 55.3453418 -5.08007812 54.09960938 C-3.98565041 52.40916752 -2.8866893 50.72165202 -1.78320312 49.03710938 C1.33126744 44.29570232 1.33126744 44.29570232 1.58984375 38.83984375 C1.06519531 37.90269531 0.54054687 36.96554688 0 36 C-0.51711548 35.04975952 -0.51711548 35.04975952 -1.04467773 34.08032227 C-1.99211187 32.36552001 -2.99203752 30.67993746 -4 29 C-13.87157292 45.55181614 -23.47751514 62.24587753 -33 79 C-33.66 78.67 -34.32 78.34 -35 78 C-33.34586393 73.46872301 -31.10287956 69.38145874 -28.75 65.1875 C-28.32251465 64.42139404 -27.8950293 63.65528809 -27.45458984 62.8659668 C-22.45023614 53.94550773 -17.27496192 45.12387752 -12.1015625 36.30078125 C-9.70650181 32.21589624 -7.33815965 28.11769495 -5 24 C-4.34 24 -3.68 24 -3 24 C-1.48779297 26.17138672 -1.48779297 26.17138672 0.2578125 29.1796875 C0.88300781 30.25347656 1.50820312 31.32726562 2.15234375 32.43359375 C3.12880859 34.13708984 3.12880859 34.13708984 4.125 35.875 C4.78371094 37.00292969 5.44242188 38.13085938 6.12109375 39.29296875 C11 47.72751682 11 47.72751682 11 50 C15.95 50 20.9 50 26 50 C24.56049033 47.52671951 23.12073473 45.05358192 21.67993164 42.58105469 C20.42636719 40.42890299 19.17427051 38.27589574 17.92358398 36.12207031 C14.71088118 30.60025001 11.46881572 25.10154999 8.140625 19.6484375 C7.53887451 18.65537598 6.93712402 17.66231445 6.31713867 16.63916016 C5.16338442 14.73940673 3.99973508 12.84562135 2.82543945 10.95849609 C2.3068335 10.10078613 1.78822754 9.24307617 1.25390625 8.359375 C0.79314697 7.61139648 0.3323877 6.86341797 -0.14233398 6.09277344 C-1.16203742 3.60461578 -0.92002063 2.48002515 0 0 Z " fill="#D4E2EC" transform="translate(155,55)"/>
<path d="M0 0 C2.31693982 2.95059593 4.19092161 5.97933813 6.00390625 9.26171875 C6.5752832 10.29079346 7.14666016 11.31986816 7.73535156 12.38012695 C8.33831055 13.47156006 8.94126953 14.56299316 9.5625 15.6875 C14.2630974 24.14698646 19.01981179 32.56093283 23.97875977 40.87182617 C25.76337002 43.86724304 27.50690771 46.84703383 29 50 C25.81175432 51.59412284 22.37103338 51.10174735 18.875 51.0625 C18.12089844 51.05798828 17.36679688 51.05347656 16.58984375 51.04882812 C14.72652873 51.03703499 12.86325445 51.01909942 11 51 C11 50.67 11 50.34 11 50 C15.95 50 20.9 50 26 50 C24.56049033 47.52671951 23.12073473 45.05358192 21.67993164 42.58105469 C20.42636719 40.42890299 19.17427051 38.27589574 17.92358398 36.12207031 C14.71088118 30.60025001 11.46881572 25.10154999 8.140625 19.6484375 C7.23799927 18.15884521 7.23799927 18.15884521 6.31713867 16.63916016 C5.16338442 14.73940673 3.99973508 12.84562135 2.82543945 10.95849609 C2.04753052 9.67193115 2.04753052 9.67193115 1.25390625 8.359375 C0.79314697 7.61139648 0.3323877 6.86341797 -0.14233398 6.09277344 C-1.16203742 3.60461578 -0.92002063 2.48002515 0 0 Z " fill="#DDE9F0" transform="translate(155,55)"/>
<path d="M0 0 C3 1 3 1 4.6875 4.0625 C5.120625 5.031875 5.55375 6.00125 6 7 C2.81175432 8.59412284 -0.62896662 8.10174735 -4.125 8.0625 C-4.87910156 8.05798828 -5.63320312 8.05347656 -6.41015625 8.04882812 C-8.27347127 8.03703499 -10.13674555 8.01909942 -12 8 C-12 7.67 -12 7.34 -12 7 C-7.05 7 -2.1 7 3 7 C2.01 5.35 1.02 3.7 0 2 C0 1.34 0 0.68 0 0 Z " fill="#D4E3ED" transform="translate(178,98)"/>
<path d="M0 0 C0.99 0.33 1.98 0.66 3 1 C0.525 5.455 0.525 5.455 -2 10 C-2.66 9.67 -3.32 9.34 -4 9 C-2.80100302 5.9168649 -1.52299523 2.93720508 0 0 Z " fill="#DEE9F0" transform="translate(150,109)"/>
<path d="M0 0 C0.99 0.33 1.98 0.66 3 1 C1.68 3.31 0.36 5.62 -1 8 C-1.66 7.67 -2.32 7.34 -3 7 C-1.125 2.25 -1.125 2.25 0 0 Z " fill="#D5E3ED" transform="translate(147,84)"/>
<path d="M0 0 C3 1 3 1 4.6875 4.0625 C5.120625 5.031875 5.55375 6.00125 6 7 C5.01 7 4.02 7 3 7 C0 2.77777778 0 2.77777778 0 0 Z " fill="#E7EFF4" transform="translate(174,91)"/>
</svg>
